<mxfile host="app.diagrams.net" agent="Mozilla/5.0 (Macintosh; Intel Mac OS X 10_15_7) AppleWebKit/537.36 (KHTML, like Gecko) Chrome/130.0.0.0 Safari/537.36" version="24.8.2">
  <diagram name="第 1 页" id="jI9bvb9hcWQYPshRb0IM">
    <mxGraphModel dx="1026" dy="650" grid="1" gridSize="10" guides="1" tooltips="1" connect="1" arrows="1" fold="1" page="1" pageScale="1" pageWidth="827" pageHeight="1169" math="0" shadow="0">
      <root>
        <mxCell id="0" />
        <mxCell id="1" parent="0" />
        <mxCell id="B8caX0geuW2_08WohSGr-10" style="edgeStyle=orthogonalEdgeStyle;rounded=1;orthogonalLoop=1;jettySize=auto;html=1;entryX=0.5;entryY=0;entryDx=0;entryDy=0;curved=0;endArrow=none;endFill=0;" parent="1" source="PAD3_m2Hn1ULvVXBl3rb-3" target="B8caX0geuW2_08WohSGr-7" edge="1">
          <mxGeometry relative="1" as="geometry" />
        </mxCell>
        <mxCell id="B8caX0geuW2_08WohSGr-12" style="edgeStyle=orthogonalEdgeStyle;rounded=1;orthogonalLoop=1;jettySize=auto;html=1;entryX=0.5;entryY=0;entryDx=0;entryDy=0;startArrow=none;startFill=0;strokeColor=default;curved=0;endArrow=none;endFill=0;" parent="1" source="PAD3_m2Hn1ULvVXBl3rb-3" target="B8caX0geuW2_08WohSGr-2" edge="1">
          <mxGeometry relative="1" as="geometry" />
        </mxCell>
        <mxCell id="PAD3_m2Hn1ULvVXBl3rb-3" value="&lt;font style=&quot;font-size: 18px;&quot;&gt;机器学习&lt;/font&gt;" style="rounded=1;whiteSpace=wrap;html=1;fillColor=#d5e8d4;strokeColor=#82b366;" parent="1" vertex="1">
          <mxGeometry x="70" y="150" width="670" height="60" as="geometry" />
        </mxCell>
        <mxCell id="B8caX0geuW2_08WohSGr-22" style="edgeStyle=orthogonalEdgeStyle;rounded=1;orthogonalLoop=1;jettySize=auto;html=1;entryX=0.5;entryY=0;entryDx=0;entryDy=0;curved=0;endArrow=none;endFill=0;fillColor=#fff2cc;strokeColor=#d6b656;" parent="1" source="B8caX0geuW2_08WohSGr-2" target="B8caX0geuW2_08WohSGr-13" edge="1">
          <mxGeometry relative="1" as="geometry" />
        </mxCell>
        <mxCell id="B8caX0geuW2_08WohSGr-2" value="&lt;font style=&quot;font-size: 18px;&quot;&gt;无监督学习&lt;/font&gt;&lt;div&gt;&lt;span style=&quot;font-size: 18px;&quot;&gt;[无标签数据]&lt;/span&gt;&lt;/div&gt;" style="rounded=1;whiteSpace=wrap;html=1;fillColor=#ffe6cc;strokeColor=#d79b00;" parent="1" vertex="1">
          <mxGeometry x="70" y="270" width="140" height="140" as="geometry" />
        </mxCell>
        <mxCell id="B8caX0geuW2_08WohSGr-24" style="edgeStyle=orthogonalEdgeStyle;rounded=1;orthogonalLoop=1;jettySize=auto;html=1;entryX=0.5;entryY=0;entryDx=0;entryDy=0;curved=0;endArrow=none;endFill=0;fillColor=#fff2cc;strokeColor=#d6b656;" parent="1" source="B8caX0geuW2_08WohSGr-5" target="B8caX0geuW2_08WohSGr-14" edge="1">
          <mxGeometry relative="1" as="geometry" />
        </mxCell>
        <mxCell id="B8caX0geuW2_08WohSGr-25" style="edgeStyle=orthogonalEdgeStyle;rounded=1;orthogonalLoop=1;jettySize=auto;html=1;entryX=0.5;entryY=0;entryDx=0;entryDy=0;curved=0;endArrow=none;endFill=0;fillColor=#fff2cc;strokeColor=#d6b656;" parent="1" source="B8caX0geuW2_08WohSGr-5" target="B8caX0geuW2_08WohSGr-15" edge="1">
          <mxGeometry relative="1" as="geometry" />
        </mxCell>
        <mxCell id="B8caX0geuW2_08WohSGr-5" value="&lt;font style=&quot;font-size: 18px;&quot;&gt;有监督学习&lt;/font&gt;&lt;div&gt;&lt;span style=&quot;font-size: 18px;&quot;&gt;[有标签数据]&lt;/span&gt;&lt;/div&gt;" style="rounded=1;whiteSpace=wrap;html=1;fillColor=#fff2cc;strokeColor=#d6b656;" parent="1" vertex="1">
          <mxGeometry x="245" y="270" width="285" height="140" as="geometry" />
        </mxCell>
        <mxCell id="B8caX0geuW2_08WohSGr-26" style="edgeStyle=orthogonalEdgeStyle;rounded=1;orthogonalLoop=1;jettySize=auto;html=1;entryX=0.5;entryY=0;entryDx=0;entryDy=0;curved=0;endArrow=none;endFill=0;" parent="1" source="B8caX0geuW2_08WohSGr-7" target="B8caX0geuW2_08WohSGr-16" edge="1">
          <mxGeometry relative="1" as="geometry" />
        </mxCell>
        <mxCell id="B8caX0geuW2_08WohSGr-27" style="edgeStyle=orthogonalEdgeStyle;rounded=1;orthogonalLoop=1;jettySize=auto;html=1;entryX=0.5;entryY=0;entryDx=0;entryDy=0;curved=0;endArrow=none;endFill=0;" parent="1" source="B8caX0geuW2_08WohSGr-7" target="B8caX0geuW2_08WohSGr-18" edge="1">
          <mxGeometry relative="1" as="geometry" />
        </mxCell>
        <mxCell id="B8caX0geuW2_08WohSGr-7" value="&lt;font style=&quot;font-size: 18px;&quot;&gt;强化学习&lt;/font&gt;&lt;div&gt;&lt;span style=&quot;font-size: 18px;&quot;&gt;[交互数据]&lt;/span&gt;&lt;/div&gt;" style="rounded=1;whiteSpace=wrap;html=1;fillColor=#f8cecc;strokeColor=#b85450;" parent="1" vertex="1">
          <mxGeometry x="550" y="270" width="230" height="140" as="geometry" />
        </mxCell>
        <mxCell id="B8caX0geuW2_08WohSGr-13" value="&lt;font style=&quot;font-size: 18px;&quot;&gt;聚类&lt;/font&gt;&lt;div&gt;&lt;font size=&quot;3&quot;&gt;（clustering）&lt;/font&gt;&lt;/div&gt;" style="rounded=1;whiteSpace=wrap;html=1;fillColor=#ffe6cc;strokeColor=#d79b00;" parent="1" vertex="1">
          <mxGeometry x="70" y="450" width="140" height="60" as="geometry" />
        </mxCell>
        <mxCell id="B8caX0geuW2_08WohSGr-14" value="&lt;font style=&quot;font-size: 18px;&quot;&gt;分类&lt;/font&gt;&lt;div&gt;&lt;font size=&quot;3&quot;&gt;（Classification）&lt;/font&gt;&lt;/div&gt;" style="rounded=1;whiteSpace=wrap;html=1;fillColor=#fff2cc;strokeColor=#d6b656;" parent="1" vertex="1">
          <mxGeometry x="252" y="450" width="125" height="60" as="geometry" />
        </mxCell>
        <mxCell id="B8caX0geuW2_08WohSGr-15" value="&lt;span style=&quot;font-size: 18px;&quot;&gt;回归&lt;/span&gt;&lt;br&gt;&lt;div&gt;&lt;font size=&quot;3&quot;&gt;（Regression）&lt;/font&gt;&lt;/div&gt;" style="rounded=1;whiteSpace=wrap;html=1;fillColor=#fff2cc;strokeColor=#d6b656;" parent="1" vertex="1">
          <mxGeometry x="398" y="450" width="125" height="60" as="geometry" />
        </mxCell>
        <mxCell id="B8caX0geuW2_08WohSGr-16" value="&lt;span style=&quot;font-size: 18px;&quot;&gt;决策支持&lt;/span&gt;" style="rounded=1;whiteSpace=wrap;html=1;fillColor=#f8cecc;strokeColor=#b85450;" parent="1" vertex="1">
          <mxGeometry x="564" y="450" width="86" height="60" as="geometry" />
        </mxCell>
        <mxCell id="B8caX0geuW2_08WohSGr-18" value="&lt;span style=&quot;font-size: 18px;&quot;&gt;控制&lt;/span&gt;" style="rounded=1;whiteSpace=wrap;html=1;fillColor=#f8cecc;strokeColor=#b85450;" parent="1" vertex="1">
          <mxGeometry x="676" y="450" width="86" height="60" as="geometry" />
        </mxCell>
        <mxCell id="B8caX0geuW2_08WohSGr-19" value="&lt;font style=&quot;font-size: 18px;&quot;&gt;深度学习&lt;/font&gt;" style="rounded=1;whiteSpace=wrap;html=1;fillColor=#dae8fc;strokeColor=#6c8ebf;" parent="1" vertex="1">
          <mxGeometry x="237.5" y="555" width="535" height="60" as="geometry" />
        </mxCell>
        <mxCell id="B8caX0geuW2_08WohSGr-20" value="" style="shape=curlyBracket;whiteSpace=wrap;html=1;rounded=1;flipH=1;labelPosition=right;verticalLabelPosition=middle;align=left;verticalAlign=middle;rotation=90;shadow=1;" parent="1" vertex="1">
          <mxGeometry x="495" y="275" width="20" height="530" as="geometry" />
        </mxCell>
        <mxCell id="B8caX0geuW2_08WohSGr-28" style="edgeStyle=orthogonalEdgeStyle;rounded=0;orthogonalLoop=1;jettySize=auto;html=1;entryX=0.564;entryY=0.011;entryDx=0;entryDy=0;entryPerimeter=0;endArrow=none;endFill=0;" parent="1" source="PAD3_m2Hn1ULvVXBl3rb-3" target="B8caX0geuW2_08WohSGr-5" edge="1">
          <mxGeometry relative="1" as="geometry" />
        </mxCell>
      </root>
    </mxGraphModel>
  </diagram>
</mxfile>
